<svg xmlns="http://www.w3.org/2000/svg" viewBox="0 0 75.19 14.96"><defs><style>.cls-1,.cls-2{fill:#fff;}.cls-2{fill-rule:evenodd;}</style></defs><title>gh</title><g id="Layer_2" data-name="Layer 2"><g id="Layer_1-2" data-name="Layer 1"><path class="cls-1" d="M30.52,6.4H25.87a.22.22,0,0,0-.22.22V8.89a.22.22,0,0,0,.22.22h1.81v2.82a5.49,5.49,0,0,1-1.53.14c-1.33,0-3.18-.49-3.18-4.57s1.93-4.62,3.75-4.62a7.35,7.35,0,0,1,2.68.41.22.22,0,0,0,.26-.21l.52-2.2a.2.2,0,0,0-.08-.17C29.91.6,28.84,0,26.15,0,23,0,19.86,1.32,19.86,7.67S23.51,15,26.58,15a7.56,7.56,0,0,0,4.09-1.09.19.19,0,0,0,.07-.16V6.62A.22.22,0,0,0,30.52,6.4Z"/><path class="cls-1" d="M54.48.76a.22.22,0,0,0-.22-.22H51.64a.22.22,0,0,0-.22.22V5.82H47.35V.76a.22.22,0,0,0-.22-.22H44.51a.22.22,0,0,0-.22.22v13.7a.22.22,0,0,0,.22.22h2.62a.22.22,0,0,0,.22-.22V8.6h4.08v5.86a.22.22,0,0,0,.22.22h2.62a.22.22,0,0,0,.22-.22Z"/><ellipse class="cls-1" cx="33.77" cy="2.56" rx="1.69" ry="1.7"/><path class="cls-1" d="M35.27,11.57V5.25A.22.22,0,0,0,35.05,5H32.44a.25.25,0,0,0-.23.24v9.06c0,.27.17.35.38.35h2.35c.26,0,.32-.13.32-.35Z"/><path class="cls-1" d="M64.42,5h-2.6a.22.22,0,0,0-.22.22V12a2.93,2.93,0,0,1-1.6.48c-.94,0-1.19-.43-1.19-1.34V5.27A.22.22,0,0,0,58.61,5H56a.22.22,0,0,0-.22.22v6.3c0,2.72,1.52,3.39,3.61,3.39A6.09,6.09,0,0,0,62.46,14a5.5,5.5,0,0,0,.1.56.23.23,0,0,0,.19.12h1.68a.22.22,0,0,0,.22-.22V5.27A.22.22,0,0,0,64.42,5Z"/><path class="cls-1" d="M71.52,4.74A4.88,4.88,0,0,0,69,5.4V.76a.22.22,0,0,0-.22-.22H66.2A.22.22,0,0,0,66,.76v13.7a.22.22,0,0,0,.22.22H68a.22.22,0,0,0,.19-.12,4.27,4.27,0,0,0,.11-.63,4.7,4.7,0,0,0,3.11,1c2.39,0,3.75-1.21,3.75-5.43S73,4.74,71.52,4.74Zm-1,7.72A3.11,3.11,0,0,1,69,12V7.68a3.46,3.46,0,0,1,1.34-.44c.94-.08,1.84.2,1.84,2.43S71.76,12.5,70.5,12.46Z"/><path class="cls-1" d="M42.79,5h-2V2.43c0-.1-.05-.15-.16-.15H38c-.1,0-.16,0-.16.15V5.11l-1.43.35a.22.22,0,0,0-.16.21V7.35a.22.22,0,0,0,.22.22h1.37v4.05c0,3,2.11,3.31,3.54,3.31a6,6,0,0,0,1.56-.26.2.2,0,0,0,.12-.2V12.63a.22.22,0,0,0-.22-.22c-.11,0-.41,0-.71,0-1,0-1.29-.45-1.29-1s0-3.85,0-3.85h2A.22.22,0,0,0,43,7.35V5.24A.22.22,0,0,0,42.79,5Z"/><path class="cls-2" d="M7.67,0A7.67,7.67,0,0,0,5.25,14.95c.38.07.52-.17.52-.37s0-.66,0-1.3c-2.13.46-2.58-1-2.58-1a2,2,0,0,0-.85-1.12c-.7-.48.05-.47.05-.47a1.61,1.61,0,0,1,1.17.79,1.63,1.63,0,0,0,2.23.64,1.64,1.64,0,0,1,.49-1c-1.7-.19-3.49-.85-3.49-3.79a3,3,0,0,1,.79-2.06,2.76,2.76,0,0,1,.08-2S4.29,3,5.75,4A7.27,7.27,0,0,1,9.59,4c1.46-1,2.11-.79,2.11-.79a2.76,2.76,0,0,1,.08,2,3,3,0,0,1,.79,2.06c0,2.95-1.79,3.6-3.5,3.78a1.83,1.83,0,0,1,.52,1.42c0,1,0,1.85,0,2.1s.14.44.53.37A7.67,7.67,0,0,0,7.67,0Z"/></g></g></svg>