<svg id="Layer_1" data-name="Layer 1" xmlns="http://www.w3.org/2000/svg" viewBox="0 0 60 60"><defs><style>.cls-1{fill:#fff;}</style></defs><title>icon-components</title><path class="cls-1" d="M17.66,18.25H13a.59.59,0,0,1-.59-.59V13a.59.59,0,0,1,.59-.59h4.7a.59.59,0,0,1,.59.59v4.7A.59.59,0,0,1,17.66,18.25Zm-4.11-1.18h3.53V13.55H13.55Z"/><path class="cls-1" d="M47,18.25h-4.7a.59.59,0,0,1-.59-.59V13a.59.59,0,0,1,.59-.59H47a.59.59,0,0,1,.59.59v4.7A.59.59,0,0,1,47,18.25Zm-4.11-1.18h3.53V13.55H42.93Z"/><path class="cls-1" d="M17.66,47.63H13a.59.59,0,0,1-.59-.59v-4.7a.59.59,0,0,1,.59-.59h4.7a.59.59,0,0,1,.59.59V47A.59.59,0,0,1,17.66,47.63Zm-4.11-1.18h3.53V42.93H13.55Z"/><path class="cls-1" d="M47,47.63h-4.7a.59.59,0,0,1-.59-.59v-4.7a.59.59,0,0,1,.59-.59H47a.59.59,0,0,1,.59.59V47A.59.59,0,0,1,47,47.63Zm-4.11-1.18h3.53V42.93H42.93Z"/><path class="cls-1" d="M15.31,42.93a.59.59,0,0,1-.59-.59V17.66a.59.59,0,0,1,1.18,0V42.34A.59.59,0,0,1,15.31,42.93Z"/><path class="cls-1" d="M42.34,15.9H17.66a.59.59,0,0,1,0-1.18H42.34a.59.59,0,0,1,0,1.18Z"/><path class="cls-1" d="M44.69,42.93a.59.59,0,0,1-.59-.59V17.66a.59.59,0,0,1,1.18,0V42.34A.59.59,0,0,1,44.69,42.93Z"/><path class="cls-1" d="M42.34,45.28H17.66a.59.59,0,0,1,0-1.18H42.34a.59.59,0,0,1,0,1.18Z"/></svg>