<svg id="Layer_1" data-name="Layer 1" xmlns="http://www.w3.org/2000/svg" viewBox="0 0 40 40"><defs><style>.cls-1{fill:#ef1b23;}</style></defs><title>icon-reference-guide</title><path class="cls-1" d="M29.66,32.6h-17a2.81,2.81,0,0,1-2.75-3v-18a.42.42,0,1,1,.84,0v18a2,2,0,0,0,1.91,2.21H29.24V14.54a.42.42,0,0,1,.84,0V32.18A.42.42,0,0,1,29.66,32.6Z"/><path class="cls-1" d="M29.66,15H22.1a.42.42,0,1,1,0-.84h6.75a6.42,6.42,0,0,1-.63-2.93,6.38,6.38,0,0,1,.63-3H13.19a2.42,2.42,0,0,0-2.44,2.21V12a2.41,2.41,0,0,0,2.52,2.1h2.94a.42.42,0,0,1,0,.84H13.28A3.23,3.23,0,0,1,9.92,12V10.44a3.25,3.25,0,0,1,3.28-3H29.66a.42.42,0,0,1,.3.72c-1.2,1.2-1.2,4.93,0,6.13a.42.42,0,0,1-.3.72Z"/><path class="cls-1" d="M28.4,11.6H13.7a.42.42,0,1,1,0-.84H28.4a.42.42,0,1,1,0,.84Z"/><path class="cls-1" d="M22.1,24.2a.42.42,0,0,1-.32-.14l-2.63-3-2.63,3a.42.42,0,0,1-.74-.28V11.18a.42.42,0,0,1,.84,0V22.66l2.2-2.52a.43.43,0,0,1,.63,0l2.2,2.52V11.18a.42.42,0,0,1,.84,0v12.6a.42.42,0,0,1-.27.39Z"/></svg>