<svg id="Layer_1" data-name="Layer 1" xmlns="http://www.w3.org/2000/svg" viewBox="0 0 90 90"><defs><style>.cls-1{fill:#fff;}</style></defs><title>icon-typescript</title><path class="cls-1" d="M32.56,24.89V68H29.42V24.89H16.13V22H45.85v2.92Z"/><path class="cls-1" d="M49.61,66.36V62.73a18.47,18.47,0,0,0,10,3.14q5.39,0,8.18-2.23A7.54,7.54,0,0,0,70.6,57.4a8.15,8.15,0,0,0-1.88-5.63q-1.88-2.1-8.14-5.73-7-4.08-8.86-6.82a11,11,0,0,1-1.86-6.34,10.72,10.72,0,0,1,3.79-8.28q3.79-3.4,10.11-3.4A25.69,25.69,0,0,1,72,22.58v3.34a20.69,20.69,0,0,0-8.63-1.83,11,11,0,0,0-7.43,2.38,7.63,7.63,0,0,0-2.74,6A8.08,8.08,0,0,0,55,38.12q1.88,2.09,8.1,5.68,6.45,3.66,8.58,6.5a10.58,10.58,0,0,1,2.13,6.53,11.13,11.13,0,0,1-3.67,8.63Q66.52,68.8,59.81,68.8a24,24,0,0,1-5.47-.74A17.72,17.72,0,0,1,49.61,66.36Z"/></svg>