<svg id="Layer_1" data-name="Layer 1" xmlns="http://www.w3.org/2000/svg" viewBox="0 0 90 90"><defs><style>.cls-1{fill:#fff;}</style></defs><title>icon-routing</title><path class="cls-1" d="M74.17,71.77H16.83A4.79,4.79,0,0,1,12,67V23a4.79,4.79,0,0,1,4.79-4.79H74.17A4.79,4.79,0,0,1,79,23V67A4.79,4.79,0,0,1,74.17,71.77ZM16.83,20.15A2.88,2.88,0,0,0,14,23V67a2.88,2.88,0,0,0,2.87,2.87H74.17A2.88,2.88,0,0,0,77,67V23a2.88,2.88,0,0,0-2.87-2.87Z"/><path class="cls-1" d="M78,29.73H13a1,1,0,0,1,0-1.92H78a1,1,0,1,1,0,1.92Z"/><circle class="cls-1" cx="17.79" cy="23.98" r="1.92"/><circle class="cls-1" cx="23.54" cy="23.98" r="1.92"/><circle class="cls-1" cx="29.28" cy="23.98" r="1.92"/></svg>