<svg id="Layer_1" data-name="Layer 1" xmlns="http://www.w3.org/2000/svg" viewBox="0 0 60 60"><defs><style>.cls-1{fill:#fff;}</style></defs><title>icon-internationalization</title><path class="cls-1" d="M32.21,48a.62.62,0,0,1-.47-1,21.2,21.2,0,0,0,2.92-4.25A5.83,5.83,0,0,0,35,40.1c-.21-.5-1.23-1.1-2.13-1.63-1.4-.83-2.85-1.68-2.85-2.92,0-.59.58-1,1.19-1.43a5.28,5.28,0,0,0,.66-.52c-.1-1.62-2.68-3.32-5-4.82a16.83,16.83,0,0,1-4.18-3.35l-.43-.58a13,13,0,0,1-2.13-3.34,3.54,3.54,0,0,1,.42-2.11c.22-.53.47-1.14.3-1.37a4.86,4.86,0,0,0-.8-.47c-.84-.44-1.63-.85-1.63-1.58a.62.62,0,0,1,1.22-.1,5.28,5.28,0,0,0,1,.59,3.59,3.59,0,0,1,1.23.85c.57.79.18,1.73-.16,2.56a2.92,2.92,0,0,0-.35,1.35,15.48,15.48,0,0,0,1.91,2.88l.45.6a16.3,16.3,0,0,0,3.86,3c2.71,1.79,5.51,3.64,5.51,5.95,0,.59-.58,1-1.19,1.43a5.55,5.55,0,0,0-.65.51c.12.53,1.33,1.24,2.23,1.77,1.17.69,2.28,1.34,2.65,2.22s-.12,2.93-.29,3.5c-.43,1.41-2.87,4.36-3.15,4.69A.62.62,0,0,1,32.21,48Z"/><path class="cls-1" d="M44.18,41.1h-.1a.62.62,0,0,1-.51-.71c.41-2.54.57-5.68.11-6.32-.27-.38-1.28-.58-2.09-.74a6.53,6.53,0,0,1-2.05-.63,2.54,2.54,0,0,1-.78-1,2.3,2.3,0,0,0-.38-.54,8.29,8.29,0,0,0-2.47,0,7.45,7.45,0,0,1-3.07,0c-1.5-.62-4.89-3.05-4-5.12.32-.78,1.35-.8,2.25-.81a3.94,3.94,0,0,0,1.08-.1c.67-.41,1.11-1.81,1.5-3a9.81,9.81,0,0,1,1.1-2.64,3.37,3.37,0,0,1,.8-.69,5.24,5.24,0,0,0,.58-.45,3.66,3.66,0,0,0-.85-.28,3.75,3.75,0,0,1-1.31-.5c-.13-.09-.29-.23-.47-.39a4.07,4.07,0,0,0-1-.73c-.05,0-.33.29-.49.45a2.16,2.16,0,0,1-1.35.79c-.91,0-1.4-1.24-1.73-2.06l-.07-.17a6,6,0,0,1-.1-2.49c0-.32.05-.61.05-.83a.62.62,0,1,1,1.23,0c0,.25,0,.58-.06.93A6,6,0,0,0,30,15l.07.18a5.13,5.13,0,0,0,.62,1.24,5,5,0,0,0,.47-.41,2.16,2.16,0,0,1,1.35-.79,3.29,3.29,0,0,1,1.82,1c.15.13.28.24.39.32a3.1,3.1,0,0,0,.88.3c.71.17,1.68.41,1.83,1.33.12.72-.55,1.19-1.14,1.6a3.47,3.47,0,0,0-.51.4,9.33,9.33,0,0,0-.92,2.29c-.48,1.51-1,3.07-2,3.73a3.5,3.5,0,0,1-1.71.28,3.85,3.85,0,0,0-1.18.12c-.33.86,1.87,2.8,3.42,3.44a8.24,8.24,0,0,0,2.48,0,7.45,7.45,0,0,1,3.07,0,2.26,2.26,0,0,1,1,1.06,2.38,2.38,0,0,0,.36.52,6.06,6.06,0,0,0,1.65.47c1.12.23,2.29.46,2.84,1.23,1,1.39.27,6.28.11,7.24A.62.62,0,0,1,44.18,41.1Z"/><path class="cls-1" d="M30,48.5A18.5,18.5,0,1,1,48.5,30,18.52,18.52,0,0,1,30,48.5Zm0-35.77A17.27,17.27,0,1,0,47.27,30,17.29,17.29,0,0,0,30,12.73Z"/></svg>