<svg id="Layer_1" data-name="Layer 1" xmlns="http://www.w3.org/2000/svg" viewBox="0 0 40 40"><defs><style>.cls-1{fill:#fffb69;}</style></defs><title>icon-docs</title><path class="cls-1" d="M27.12,29.79H10.21a.44.44,0,0,1-.44-.44v-16A.44.44,0,0,1,9.9,13l6.23-6.23a.44.44,0,0,1,.31-.13H27.12a.44.44,0,0,1,.44.44V29.34A.44.44,0,0,1,27.12,29.79ZM10.66,28.9h16V7.54h-10l-6,6Z"/><path class="cls-1" d="M16.44,13.77H10.21a.44.44,0,1,1,0-.89H16V7.1a.44.44,0,0,1,.89,0v6.23A.44.44,0,0,1,16.44,13.77Z"/><path class="cls-1" d="M29.79,33.35h-16a.44.44,0,0,1-.44-.44V29.34a.44.44,0,0,1,.89,0v3.11H29.34V11.1H27.12a.44.44,0,0,1,0-.89h2.67a.44.44,0,0,1,.44.44V32.9A.44.44,0,0,1,29.79,33.35Z"/></svg>