<svg id="Layer_1" data-name="Layer 1" xmlns="http://www.w3.org/2000/svg" viewBox="0 0 90 90"><defs><style>.cls-1{fill:#fff;}</style></defs><title>icon-widget-authoring</title><path class="cls-1" d="M17.45,73.46a1,1,0,0,1-.9-1.25l3.8-11.4a1,1,0,0,1,.23-.37L62.84,18.2c2.37-2.37,5.86-2.2,8.49.43a7.58,7.58,0,0,1,2.17,5,4.15,4.15,0,0,1-1.22,3C39.46,59.06,31.45,67.2,30.64,68.2a1,1,0,0,1-.5.45L17.79,73.4A1,1,0,0,1,17.45,73.46Zm4.63-11.84L19,70.9l10.34-4c1.65-2,9-9.42,41.61-41.64a2.23,2.23,0,0,0,.66-1.67A5.72,5.72,0,0,0,70,20a4.78,4.78,0,0,0-3.09-1.54,3.61,3.61,0,0,0-2.72,1.11Z"/><path class="cls-1" d="M29.8,68.71a1,1,0,0,1-.67-.28l-7.6-7.6a.95.95,0,1,1,1.34-1.34l7.6,7.6a1,1,0,0,1-.67,1.62Z"/><path class="cls-1" d="M65,33.56a1,1,0,0,1-.67-.28l-7.6-7.6A.95.95,0,1,1,58,24.34l7.6,7.6A1,1,0,0,1,65,33.56Z"/></svg>