<svg xmlns="http://www.w3.org/2000/svg" width="250" height="250" viewBox="0 0 885.8 885.8"><style>.a{fill:#4472c4;stroke-width:1px;stroke:#000;}.b{-inkscape-font-specification:'sans-serif, Normal';fill:#fff;font-family:sans-serif;font-size:90px;letter-spacing:0px;line-height:100%;stroke-width:1px;text-align:start;word-spacing:0px;}.c{fill:#a5a5a5;stroke-width:2px;stroke:#a5a5a5;}.d{fill:#ffc000;stroke-width:2;stroke:#ffc000;}</style><g transform="translate(0 -166.53543)"><rect width="532.9" height="235.7" x="177.4" y="312.4" class="a"/><text x="318.4" y="462" class="b"><tspan x="318.4" y="462">  HTML</tspan></text><path d="m246.9 178.5-11.3 27.8 9.6-5.6 19.1 33 0.1 0.1 19.1 33-9.6 5.6 29.7 4.2-28.3-49-7.1 4 7-4.2-28.3-49zm1.2-0.7 28.3 49 7.1-4-7 4.2 28.3 49 11.3-27.8-9.6 5.6-19.1-33-19.1-33.2 9.6-5.6-29.7-4.2z" class="c"/><path d="m330.7 561.3-23.2 32.3 10.9 0 0 66.9 12.3-0.3 0-98.9zm1.4 0 0 98.9 12.3 0.3 0-66.9 10.9 0-23.2-32.3z" class="d"/><path d="m42.8 235.2 4.2 29.7 5.6-9.6 33 19.1 0.1 0.1 33 19.1-5.6 9.6 27.8-11.3-49-28.3-4.2 7 4-7.1-49-28.3zm0.7-1.2 49 28.3 4.2-7-4 7.1 49 28.3-4.2-29.7-5.6 9.6-33-19.1-33.2-19.1 5.6-9.6-27.8 11.3z" class="c"/><path d="m644.7 177.4 11.3 27.8-9.6-5.6-19.1 33-0.1 0.1-19.1 33 9.6 5.6-29.7 4.2 28.3-49 7.1 4-7-4.2 28.3-49zm-1.2-0.7-28.3 49-7.1-4 7 4.2-28.3 49-11.3-27.8 9.6 5.6 19.1-33 19.1-33.2-9.6-5.6 29.7-4.2z" class="c"/><path d="m848.8 234.2-4.2 29.7-5.6-9.6-33 19.1-0.1 0.1-33 19.1 5.6 9.6-27.8-11.3 49-28.3 4.2 7-4-7.1 49-28.3zm-0.7-1.2-49 28.3-4.2-7 4 7.1-49 28.3 4.2-29.7 5.6 9.6 33-19.1 33.2-19.1-5.6-9.6 27.8 11.3z" class="c"/><path d="m546.4 657.6-23.2-32.3 10.9 0 0-66.9 12.3 0.3 0 98.9zm1.4 0 0-98.9 12.3-0.3 0 66.9 10.9 0-23.2 32.3z" class="d"/><rect y="675.1" x="177.1" height="235.7" width="532.9" class="a"/><text y="821.9" x="217.1" class="b"><tspan y="821.9" x="217.1">  JavaScript</tspan></text><path d="m246.9 1046.1-11.3-27.8 9.6 5.6 19.1-33 0.1-0.1 19.1-33-9.6-5.6 29.7-4.2-28.3 49-7.1-4 7 4.2-28.3 49zm1.2 0.7 28.3-49 7.1 4-7-4.2 28.3-49 11.3 27.8-9.6-5.6-19.1 33-19.1 33.2 9.6 5.6-29.7 4.2z" class="c"/><path d="m42.8 989.3 4.2-29.7 5.6 9.6 33-19.1 0.1-0.1 33-19.1-5.6-9.6 27.8 11.3-49 28.3-4.2-7 4 7.1-49 28.3zm0.7 1.2 49-28.3 4.2 7-4-7.1 49-28.3-4.2 29.7-5.6-9.6-33 19.1-33.2 19.1 5.6 9.6-27.8-11.3z" class="c"/><path d="m644.7 1047.1 11.3-27.8-9.6 5.6-19.1-33-0.1-0.1-19.1-33 9.6-5.6-29.7-4.2 28.3 49 7.1-4-7 4.2 28.3 49zm-1.2 0.7-28.3-49-7.1 4 7-4.2-28.3-49-11.3 27.8 9.6-5.6 19.1 33 19.1 33.2-9.6 5.6 29.7 4.2z" class="c"/><path d="m848.8 990.4-4.2-29.7-5.6 9.6-33-19.1-0.1-0.1-33-19.1 5.6-9.6-27.8 11.3 49 28.3 4.2-7-4 7.1 49 28.3zm-0.7 1.2-49-28.3-4.2 7 4-7.1-49-28.3 4.2 29.7 5.6-9.6 33 19.1 33.2 19.1-5.6 9.6 27.8-11.3z" class="c"/></g></svg>
