<svg xmlns="http://www.w3.org/2000/svg" width="250" height="250" viewBox="0 0 885.8 885.8"><style>.a{fill:#ffc000;stroke-width:3;stroke:#ffc000;}.b{fill:#30579c;font-family:sans-serif;font-size:50px;letter-spacing:0px;line-height:100%;stroke-width:1px;word-spacing:0px;}.c{fill:#dae3f3;stroke-width:2;}</style><g transform="translate(0 -166.53543)"><rect y="430.8" x="124.2" height="577" width="692.8" style="fill:#4472c4;stroke-width:2px;stroke:#000"/><path d="m467.7 196.8-27.4 21.4 12.9 0 0 44.2 0 0.2 0 44.2-12.9 0 27.4 21.4 0-65.5-9.5-0.1 9.5-0.1 0-65.5zm1.6 0 0 65.5 9.5 0.1-9.5 0.1 0 65.5 27.4-21.4-12.9 0 0-44.2 0-44.3 12.9 0-27.4-21.4z" style="fill:#a5a5a5;stroke-width:2px;stroke:#a5a5a5"/><path d="m389.7 661.4-26.8 37.4 12.6 0 0 77.5 14.2-0.4 0-114.5zm1.6 0 0 114.5 14.2 0.4 0-77.5 12.6 0-26.8-37.4z" class="a"/><path d="m558.4 772.9-26.8-37.4 12.6 0 0-77.5 14.2 0.4 0 114.5zm1.6 0 0-114.5 14.2-0.4 0 77.5 12.6 0-26.8 37.4z" class="a"/><rect width="309.9" height="106.4" x="313" y="378" style="fill:#dae3f3;stroke-width:3;stroke:#4472c4"/><text x="360.8" y="442.3" class="b"><tspan x="360.8" y="442.3">  Interface</tspan></text><rect width="477.1" height="115.8" x="227.5" y="510.1" ry="25.6" class="c"/><rect ry="25.6" y="806.4" x="227.5" height="115.8" width="477.1" class="c"/><text y="583.7" x="330.7" class="b"><tspan y="583.7" x="330.7">  Virtual DOM</tspan></text><text x="343.4" y="878.5" class="b"><tspan x="343.4" y="878.5">  TypeScript</tspan></text></g></svg>
