<svg xmlns="http://www.w3.org/2000/svg" width="250" height="250" viewBox="0 0 885.8 885.8"><style>.a,.b{stroke-width:1px}.a{stroke:#000;fill:#4472c4}.b{-inkscape-font-specification:&apos;sans-serif, Normal&apos;;fill:#fff;font-family:sans-serif;font-size:90px;letter-spacing:0;line-height:100%;text-align:start;word-spacing:0}.c{fill:#a5a5a5;stroke-width:2px;stroke:#a5a5a5}.d{fill:#ffc000;stroke-width:2;stroke:#ffc000}</style><path class="a" d="M177.4 145.865h532.9v235.7H177.4z"/><text x="318.4" y="462" class="b" transform="translate(0 -166.535)"><tspan x="318.4" y="462">HTML</tspan></text><path d="M246.9 11.965l-11.3 27.8 9.6-5.6 19.1 33 .1.1 19.1 33-9.6 5.6 29.7 4.2-28.3-49-7.1 4 7-4.2-28.3-49zm1.2-.7l28.3 49 7.1-4-7 4.2 28.3 49 11.3-27.8-9.6 5.6-19.1-33-19.1-33.2 9.6-5.6-29.7-4.2z" class="c"/><path d="M330.7 394.765l-23.2 32.3h10.9v66.9l12.3-.3v-98.9zm1.4 0v98.9l12.3.3v-66.9h10.9l-23.2-32.3z" class="d"/><path d="M42.8 68.665l4.2 29.7 5.6-9.6 33 19.1.1.1 33 19.1-5.6 9.6 27.8-11.3-49-28.3-4.2 7 4-7.1-49-28.3zm.7-1.2l49 28.3 4.2-7-4 7.1 49 28.3-4.2-29.7-5.6 9.6-33-19.1-33.2-19.1 5.6-9.6-27.8 11.3zM644.7 10.865l11.3 27.8-9.6-5.6-19.1 33-.1.1-19.1 33 9.6 5.6-29.7 4.2 28.3-49 7.1 4-7-4.2 28.3-49zm-1.2-.7l-28.3 49-7.1-4 7 4.2-28.3 49-11.3-27.8 9.6 5.6 19.1-33 19.1-33.2-9.6-5.6 29.7-4.2zM848.8 67.665l-4.2 29.7-5.6-9.6-33 19.1-.1.1-33 19.1 5.6 9.6-27.8-11.3 49-28.3 4.2 7-4-7.1 49-28.3zm-.7-1.2l-49 28.3-4.2-7 4 7.1-49 28.3 4.2-29.7 5.6 9.6 33-19.1 33.2-19.1-5.6-9.6 27.8 11.3z" class="c"/><path d="M546.4 491.065l-23.2-32.3h10.9v-66.9l12.3.3v98.9zm1.4 0v-98.9l12.3-.3v66.9H571l-23.2 32.3z" class="d"/><path class="a" d="M177.1 508.565H710v235.7H177.1z"/><text y="821.9" x="217.1" class="b" transform="translate(0 -166.535)"><tspan y="821.9" x="217.1">JavaScript</tspan></text><path d="M246.9 879.565l-11.3-27.8 9.6 5.6 19.1-33 .1-.1 19.1-33-9.6-5.6 29.7-4.2-28.3 49-7.1-4 7 4.2-28.3 49zm1.2.7l28.3-49 7.1 4-7-4.2 28.3-49 11.3 27.8-9.6-5.6-19.1 33-19.1 33.2 9.6 5.6-29.7 4.2zM42.8 822.765l4.2-29.7 5.6 9.6 33-19.1.1-.1 33-19.1-5.6-9.6 27.8 11.3-49 28.3-4.2-7 4 7.1-49 28.3zm.7 1.2l49-28.3 4.2 7-4-7.1 49-28.3-4.2 29.7-5.6-9.6-33 19.1-33.2 19.1 5.6 9.6-27.8-11.3zM644.7 880.565l11.3-27.8-9.6 5.6-19.1-33-.1-.1-19.1-33 9.6-5.6-29.7-4.2 28.3 49 7.1-4-7 4.2 28.3 49zm-1.2.7l-28.3-49-7.1 4 7-4.2-28.3-49-11.3 27.8 9.6-5.6 19.1 33 19.1 33.2-9.6 5.6 29.7 4.2zM848.8 823.865l-4.2-29.7-5.6 9.6-33-19.1-.1-.1-33-19.1 5.6-9.6-27.8 11.3 49 28.3 4.2-7-4 7.1 49 28.3zm-.7 1.2l-49-28.3-4.2 7 4-7.1-49-28.3 4.2 29.7 5.6-9.6 33 19.1 33.2 19.1-5.6 9.6 27.8-11.3z" class="c"/></svg>