<svg xmlns="http://www.w3.org/2000/svg" width="250" height="250" viewBox="0 0 885.8 885.8"><style>.a{fill:#ffc000;stroke-width:3;stroke:#ffc000}.b{fill:#30579c;font-family:sans-serif;font-size:50px;letter-spacing:0;line-height:100%;stroke-width:1px;word-spacing:0}.c{fill:#dae3f3;stroke-width:2}</style><g transform="translate(0 -166.535)"><path fill="#4472c4" stroke-width="2" stroke="#000" d="M124.2 430.8H817v577H124.2z"/><path d="M467.7 196.8l-27.4 21.4h12.9V306.8h-12.9l27.4 21.4v-65.5l-9.5-.1 9.5-.1V197zm1.6 0v65.5l9.5.1-9.5.1V328l27.4-21.4h-12.9v-88.5h12.9l-27.4-21.4z" fill="#a5a5a5" stroke-width="2" stroke="#a5a5a5"/><path d="M389.7 661.4l-26.8 37.4h12.6v77.5l14.2-.4V661.4zm1.6 0v114.5l14.2.4v-77.5h12.6l-26.8-37.4zM558.4 772.9l-26.8-37.4h12.6V658l14.2.4v114.5zm1.6 0V658.4l14.2-.4v77.5h12.6L560 772.9z" class="a"/><path fill="#dae3f3" stroke-width="3" stroke="#4472c4" d="M313 378h309.9v106.4H313z"/><text x="360.8" y="442.3" class="b"><tspan x="360.8" y="442.3">Interface</tspan></text><rect width="477.1" height="115.8" x="227.5" y="510.1" ry="25.6" class="c"/><rect ry="25.6" y="806.4" x="227.5" height="115.8" width="477.1" class="c"/><text y="583.7" x="330.7" class="b"><tspan y="583.7" x="330.7">Virtual DOM</tspan></text><text x="343.4" y="878.5" class="b"><tspan x="343.4" y="878.5">TypeScript</tspan></text></g></svg>